<svg id="Layer_1" data-name="Layer 1" xmlns="http://www.w3.org/2000/svg" viewBox="0 0 179.5 79.9"><defs><style>.cls-1,.cls-2{fill:#fff;}.cls-2{fill-rule:evenodd;}</style></defs><path class="cls-1" d="M58,41.7,77.8,1.1H63.4l-12,27.6h-.1L39.5,1.1h-14l22,45.8A63.94,63.94,0,0,1,58,41.7ZM91.4,35c10.9.4,24.4,4.7,34.3,6.6a33.5,33.5,0,0,0,6.6.9c4.1.1,21.3-.9,21.3-15.7,0-11.9-20.4-10.3-27.9-13.1-1.7-.6-2.7-1.5-2.7-2.8,0-1.9,1-3,2.7-3.8a15.42,15.42,0,0,1,5-.8c5,0,7.7,1.9,8.1,5.8h13.4C151.6,3.3,141.8,0,132.1,0a41.39,41.39,0,0,0-6.4.4c-8.2.9-12.6,3.7-14.7,6.7v-6H97.7V23.6c0,6.8-2.2,9.1-9,9.1s-9-2.3-9-9.1V7.1L67.4,32c0,2.5,1.3,4.4,4.5,5.8A56,56,0,0,1,91.4,35Zm19.7-17.5c2.7,4.2,8.7,5.6,14.7,6.3,7.3,1.1,14.5,1.4,14.5,5.5,0,2.8-2.6,4.4-8.6,4.4a16.84,16.84,0,0,1-5.9-.8,5.34,5.34,0,0,1-3.9-5.5H111.1V17.5Z"/><path class="cls-2" d="M141.3,45.2c-18.8,7.6-59.1-27-101.9,17.1H55.3C82.4,31,112.2,50.1,133.6,49.2A19.33,19.33,0,0,0,148.5,41,23.73,23.73,0,0,1,141.3,45.2ZM65.4,62.3H79.8c1.7-3.3,8.9-13.1,37.9-11.7,8.4.4,9.3,0,9.3,0s-4.1-.4-7.6-1C83.4,43.1,68.8,58.1,65.4,62.3Zm23.4,0h13.5c1.9-7.7,20.2-9.8,20.2-9.8S98.5,51.4,88.8,62.3Z"/><path class="cls-1" d="M3.7,70.5H7.6l3.7,7.4H8.6l-.7-1.2H3.4l-.7,1.2H0Zm2.1,1.7H5.4L4.2,74.8H7Z"/><path class="cls-1" d="M22.7,77.9H19l-3.9-5.5c0-.1-.1-.2-.1-.3a.1.1,0,0,0-.1-.1v.2a3.22,3.22,0,0,0,.2.6v5.1H12.8V70.5h3.7L20.4,76c0,.1.1.2.1.3a.1.1,0,0,0,.1.1v-.2c-.1-.2-.1-.4-.2-.6V70.5h2.3Z"/><path class="cls-1" d="M24.7,70.5H27v2.6h4.9V70.5h2.3v7.4H31.9V75H27v2.9H24.7Z"/><path class="cls-1" d="M46.5,76h.2l2.8-5.4H52L48.3,78H44.8l-3.7-7.4h2.6Z"/><path class="cls-1" d="M56.2,70.5h3.9l3.7,7.4H61.1l-.7-1.2H55.9l-.7,1.2H52.5Zm4.1-1.8h0a1.8,1.8,0,0,1-.3,1.1,1.49,1.49,0,0,1-1,.3H57.4c-.9,0-1.3-.5-1.3-1.4h.7c0,.4.3.6.8.6H59a.75.75,0,0,0,.5-.1c.2-.1.2-.2.2-.4v-.1Zm-2,3.5h-.4l-1.2,2.6h2.8Z"/><path class="cls-1" d="M75.2,77.9H71.5l-3.9-5.5c0-.1-.1-.2-.1-.3a.1.1,0,0,0-.1-.1v.2a3.22,3.22,0,0,0,.2.6v5.1H65.3V70.5H69L72.9,76c0,.1.1.2.1.3a.1.1,0,0,0,.1.1v-.2c0-.2-.1-.4-.1-.6V70.5h2.3v7.4Z"/><path class="cls-1" d="M82.6,70.5h2.3v2.6h4.9V70.5H92v7.4H89.7V75H84.8v2.9H82.5V70.5Z"/><path class="cls-1" d="M103.9,74.2c0,1.8-.2,2.9-.7,3.2s-1.9.6-4.2.6a21.18,21.18,0,0,1-3.4-.2,1.74,1.74,0,0,1-1.3-1,12.59,12.59,0,0,1-.2-2.6c0-1.8.2-2.9.6-3.2s1.9-.6,4.2-.6,3.8.2,4.2.6C103.7,71.3,103.9,72.4,103.9,74.2Zm-7.5,0c0,.9.1,1.5.3,1.6s1,.2,2.3.2a8,8,0,0,0,2.3-.2c.2-.2.3-.7.3-1.6s-.1-1.5-.3-1.7-1-.2-2.3-.2a8,8,0,0,0-2.3.2A2.94,2.94,0,0,0,96.4,74.2Zm0-4.7L99,68.1l2.6,1.4-.3.7L99,69.5l-2.3.6Zm1.8,8.9h1.7v1.5H98.2Z"/><path class="cls-1" d="M105.3,77.9V70.5h2.3v7.4Z"/><path class="cls-1" d="M119.3,76h.2l2.8-5.4h2.6L121.2,78h-3.5L114,70.6h2.6Z"/><path class="cls-1" d="M125.7,77.9V70.5H128v7.4Z"/><path class="cls-1" d="M129.5,77.9V70.5h8v1.8h-5.7v1h5.4v1.8h-5.4v1h5.7v1.8Zm1.4-8.4,2.6-1.4,2.6,1.4-.3.7-2.3-.6-2.3.6Zm1.7,8.9h1.7v1.5h-1.7Z"/><path class="cls-1" d="M139.5,72.4V70.5h8.8v1.9H145v5.5h-2.3V72.4Z"/><path class="cls-1" d="M159.6,70.5l1.9,4.1a1.75,1.75,0,0,0,.1.5.58.58,0,0,0,.1.4.35.35,0,0,0,.1-.2c0-.2.1-.4.1-.6l1.9-4.1h3.9V78h-2.3V72.8a.37.37,0,0,1,.1-.3.35.35,0,0,1,.1-.2c0-.1,0-.1-.1-.1a.1.1,0,0,0-.1.1.35.35,0,0,1-.1.2L162.7,78h-1.9L158,72.5a.35.35,0,0,0-.1-.2.1.1,0,0,0-.2,0,.77.77,0,0,0,.1.3V78h-2.3V70.6h4.1Z"/><path class="cls-1" d="M172,70.5l1.9,2.4a.76.76,0,0,1,.2.5c0,.2.1.3.1.5a1.58,1.58,0,0,1,.1-.4,1.42,1.42,0,0,1,.2-.6l1.9-2.4h3.1l-4.2,4.8v2.6H173V75.3l-4.2-4.8Zm4-2c0,.2,0,.3-.1.3s-.1.1-.2.1a8.38,8.38,0,0,1-1-.2c-.5-.2-.9-.2-1-.3s-.3-.1-.5-.1a1,1,0,0,0-.9.4,2.15,2.15,0,0,0-.2,1h.9c0-.3.1-.4.3-.4a4.91,4.91,0,0,1,1.2.3,5,5,0,0,0,1.4.3.91.91,0,0,0,.8-.4c.1-.1.1-.2.2-.4v-.6Z"/></svg>