<?xml version="1.0" encoding="UTF-8"?>
<svg id="Layer_1" data-name="Layer 1" xmlns="http://www.w3.org/2000/svg" viewBox="0 0 264.5 53.01">
  <defs>
    <style>
      .cls-1 {
        fill: #24356e;
      }

      .cls-1, .cls-2 {
        stroke-width: 0px;
      }

      .cls-2 {
        fill: #af2024;
        fill-rule: evenodd;
      }
    </style>
  </defs>
  <path class="cls-1" d="M157.19,40.56h-1.65c-.27,0-.48.21-.48.48v1.62c0,.27.21.47.48.47h1.65c.27,0,.48-.2.48-.47v-1.62c0-.27-.21-.48-.48-.48ZM165.9,39.22h3.7v-11.98h-3.7v11.98ZM161.79,27.24c-.97-.13-2.67-.13-5.15-.13s-4.18,0-5.14.13c-1.3.19-2.12.88-2.47,2.03-.21.74-.27,2.03-.27,3.86,0,1.97.07,3.31.27,4.06.28,1.15,1.17,1.83,2.47,1.96.96.14,2.67.2,5.14.2s4.18-.07,5.15-.13c1.3-.28,2.12-.88,2.46-2.03.2-.81.28-2.09.28-3.99s-.07-3.18-.28-3.92c-.34-1.15-1.16-1.84-2.46-2.03ZM160.96,35.09c-.14.34-.21.61-.48.74-.2.2-.55.27-1.03.33-.48.07-1.38.07-2.81.07-1.51,0-2.47,0-3.02-.07-.69-.07-1.17-.47-1.24-1.07-.13-.28-.13-.82-.13-1.56,0-1.22.07-2.03.2-2.44.14-.41.41-.68.82-.75.41-.14,1.51-.19,3.36-.19,1.65,0,2.68.06,3.08.06.41.14.75.27.89.54.21.21.28.47.35.87.07.42.07,1.02.07,1.9,0,.75,0,1.29-.07,1.56ZM255.17,25.55c.76,0,1.71.34,2.54.34s1.5-.27,2.06-.61c0,0-.83-.81-1.1-1.07-.34.2-.89.4-1.44.4-.75,0-1.65-.4-2.4-.4s-1.57.2-2.12.47l1.09,1.15c.35-.2.9-.27,1.37-.27ZM143.68,31.5h-7.95v-4.26h-3.64v11.98h3.64v-4.33h7.95v4.33h3.64v-11.98h-3.64v4.26ZM153.49,25.69l3.08-.68,3.09.68.34-.74-3.43-1.56-3.5,1.56.41.74ZM202.52,40.56h-1.65c-.27,0-.48.21-.48.48v1.62c0,.27.2.47.48.47h1.65c.27,0,.48-.2.48-.47v-1.62c0-.27-.21-.48-.48-.48ZM199.29,34.41h9.26v-2.64h-9.26v-1.69h9.26v-2.84h-12.69v11.98h12.75v-2.91h-9.32v-1.9ZM209.57,30.28h5.14v8.93h3.64v-8.93h5.14v-3.04h-13.92v3.04ZM259.98,27.24l-3.64,4.81-3.7-4.81h-4.6l6.59,7.71v4.26h3.57v-4.26l6.31-7.71h-4.53ZM198.39,24.94l.42.74,3.08-.68,3.09.68.34-.74-3.43-1.56-3.5,1.56ZM237.83,35.02l-3.43-7.78h-6.38v11.98h3.49l-.13-9h.68l4.32,9h2.88l4.32-9h.62l-.07,9h3.43v-11.98h-6.32l-3.42,7.78ZM190.52,39.22h3.7v-11.98h-3.7v11.98ZM182.01,36.17h-.69l-4.18-8.93h-3.83l5.69,11.98h5.34l5.62-11.98h-3.84l-4.11,8.93ZM135.71,19.5h5.2l.73,1.44h2.71l-4.17-8.24h-3.73l-4.17,8.24h2.79l.65-1.44ZM138.06,14.6h.52l1.54,3.1h-3.52l1.46-3.1ZM182.12,20.95l.66-1.44h5.27l.66,1.44h2.78l-4.17-8.24h-3.73l-4.24,8.24h2.78ZM185.19,14.6h.51l1.47,3.1h-3.52l1.54-3.1ZM177.36,20.95l3.88-8.24h-2.64l-2.85,6.14h-.45l-2.92-6.14h-2.64l3.95,8.24h3.66ZM155.77,20.95v-8.24h-2.49l.07,6.14h-.29l-4.09-6.14h-4.25v8.24h2.42v-6.14h.22l4.17,6.14h4.25ZM184.25,11.49c.36.14.73.29,1.23.29.59,0,1.1-.14,1.4-.5.14-.15.29-.44.36-.73h-.74c-.07.14-.21.29-.36.37-.15.07-.37.07-.66.07-.36,0-.66-.07-.8-.15-.14,0-.22-.15-.29-.29h-.73c.07.44.29.73.59.94ZM198.66,20.95h4.17v-8.24h-2.42v6.14h-.22l-4.17-6.14h-4.17v8.24h2.42l-.07-6.14h.29l4.17,6.14ZM167.33,20.95v-8.24h-2.49v2.89h-5.49v-2.89h-2.49v8.24h2.49v-3.03h5.49v3.03h2.49Z"/>
  <g>
    <path class="cls-1" d="M27.69,35.54L44.54.97h-12.26l-10.17,23.43h-.11L11.93.97H0l18.71,38.98c3.06-1.84,6.02-3.34,8.98-4.41ZM56.14,29.8c9.3.33,20.8,4,29.22,5.63,2.08.43,3.94.76,5.58.76,3.49.1,18.15-.76,18.15-13.39,0-10.16-17.39-8.75-23.74-11.12-1.43-.55-2.3-1.3-2.3-2.38,0-1.62.88-2.59,2.3-3.24,1.2-.43,2.73-.65,4.26-.65,4.27,0,6.57,1.63,6.89,4.97h11.38c-.55-7.57-8.86-10.37-17.08-10.37-2.07,0-3.82.11-5.46.32-7.01.75-10.73,3.13-12.48,5.72V.97h-11.38v19.12c0,5.83-1.86,7.78-7.67,7.78s-7.66-1.95-7.66-7.78V6.05l-10.5,21.17c0,2.15,1.09,3.77,3.83,4.97,4.8-1.63,10.39-2.59,16.63-2.38ZM72.87,14.91c2.3,3.55,7.44,4.74,12.48,5.39,6.23.97,12.36,1.19,12.36,4.65,0,2.37-2.19,3.78-7.33,3.78-1.64,0-3.49-.11-5.03-.66-1.87-.64-3.28-1.94-3.28-4.64h-9.2v-8.52Z"/>
    <path class="cls-2" d="M98.59,38.44c-15.98,6.48-50.34-23-86.78,14.57h13.57c23.08-26.66,48.48-10.36,66.64-11.12,8.42-.32,12.81-7.02,12.69-7.02-.1,0-1.86,1.94-6.13,3.56ZM34.03,53.01h12.24c1.43-2.8,7.55-11.12,32.29-9.93,7.11.33,7.88,0,7.88,0,0,0-3.49-.32-6.45-.86-30.64-5.5-43.11,7.24-45.97,10.79ZM53.94,53.01h11.49c1.64-6.57,17.18-8.31,17.18-8.31,0,0-20.46-.97-28.67,8.31Z"/>
  </g>
</svg>